<svg width="501" height="98" viewBox="0 0 501 98" fill="none" xmlns="http://www.w3.org/2000/svg">
<path d="M31.9922 31.582L21.9141 9.60938H57.5977L100.254 96.7383H61.9922L55.5469 82.793H21.2109L14.8242 96.7383H0L31.9922 31.582ZM49.3945 69.375L38.3789 45.4688L27.4219 69.375H49.3945ZM109.277 38.6133H137.344L140.156 47.0508C144.297 43.8867 148.496 41.5039 152.754 39.9023C157.051 38.3008 161.562 37.5 166.289 37.5C168.984 37.5 171.484 37.9492 173.789 38.8477C176.133 39.7461 178.164 41.1328 179.883 43.0078C181.602 44.8828 182.949 47.3047 183.926 50.2734C184.902 53.2031 185.391 56.7188 185.391 60.8203V96.6797H153.574V58.8281C153.574 56.7969 153.125 55.3125 152.227 54.375C151.328 53.4375 150.02 52.9688 148.301 52.9688C147.168 52.9688 145.918 53.2031 144.551 53.6719C143.184 54.1406 142.031 54.8828 141.094 55.8984V96.6797H109.277V38.6133ZM200.684 38.5547H232.5V74.0625C232.5 75.625 232.637 76.9336 232.91 77.9883C233.184 79.043 233.594 79.9023 234.141 80.5664C234.727 81.1914 235.43 81.6602 236.25 81.9727C237.07 82.2461 238.047 82.3828 239.18 82.3828C240.586 82.3828 241.816 82.168 242.871 81.7383C243.926 81.2695 245 80.4688 246.094 79.3359V38.5547H277.91V96.6211H249.844L247.031 88.1836C243.477 91.6602 239.629 94.1406 235.488 95.625C231.348 97.0703 227.129 97.793 222.832 97.793C215.762 97.793 210.293 95.8984 206.426 92.1094C202.598 88.2812 200.684 82.4023 200.684 74.4727V38.5547ZM294.316 0H326.191V45.5859C327.285 44.5312 328.574 43.5352 330.059 42.5977C331.582 41.6211 333.242 40.7617 335.039 40.0195C336.875 39.2383 338.828 38.6328 340.898 38.2031C343.008 37.7344 345.215 37.5 347.52 37.5C351.934 37.5 356.074 38.1445 359.941 39.4336C363.809 40.7227 367.188 42.6367 370.078 45.1758C372.969 47.7148 375.234 50.8594 376.875 54.6094C378.555 58.3594 379.395 62.7148 379.395 67.6758C379.395 72.2461 378.594 76.3867 376.992 80.0977C375.43 83.7695 373.164 86.9336 370.195 89.5898C367.227 92.207 363.613 94.2383 359.355 95.6836C355.137 97.0898 350.391 97.793 345.117 97.793C340.859 97.793 337.031 97.2656 333.633 96.2109C330.273 95.1172 327.441 93.6914 325.137 91.9336L323.496 96.6797H294.375L294.316 0ZM326.191 85.0195C327.129 85.8008 328.184 86.4258 329.355 86.8945C330.566 87.3242 331.758 87.5391 332.93 87.5391C334.883 87.5391 336.68 87.1875 338.32 86.4844C340 85.7422 341.445 84.6094 342.656 83.0859C343.906 81.5625 344.863 79.6289 345.527 77.2852C346.23 74.9023 346.582 72.0508 346.582 68.7305C346.582 65.3711 346.25 62.5 345.586 60.1172C344.961 57.7344 344.082 55.8008 342.949 54.3164C341.816 52.793 340.469 51.6797 338.906 50.9766C337.344 50.2734 335.625 49.9219 333.75 49.9219C332.305 49.9219 330.938 50.1758 329.648 50.6836C328.359 51.1914 327.207 51.8359 326.191 52.6172V85.0195ZM407.93 28.9453C405.039 28.9453 402.539 28.6328 400.43 28.0078C398.359 27.3828 396.66 26.5234 395.332 25.4297C394.004 24.2969 393.027 23.0078 392.402 21.5625C391.777 20.0781 391.465 18.4766 391.465 16.7578C391.465 15.0781 391.777 13.4961 392.402 12.0117C393.027 10.5273 394.004 9.23828 395.332 8.14453C396.66 7.01172 398.359 6.13281 400.43 5.50781C402.539 4.88281 405.039 4.57031 407.93 4.57031C410.859 4.57031 413.359 4.88281 415.43 5.50781C417.5 6.13281 419.199 7.01172 420.527 8.14453C421.895 9.23828 422.891 10.5273 423.516 12.0117C424.141 13.4961 424.453 15.0781 424.453 16.7578C424.453 18.4766 424.141 20.0781 423.516 21.5625C422.891 23.0078 421.895 24.2969 420.527 25.4297C419.199 26.5234 417.5 27.3828 415.43 28.0078C413.359 28.6328 410.859 28.9453 407.93 28.9453ZM392.051 38.6133H423.867V96.6797H392.051V38.6133ZM442.617 81.6797C444.219 82.5391 445.762 83.3203 447.246 84.0234C448.73 84.7266 450.215 85.332 451.699 85.8398C453.184 86.3086 454.668 86.6797 456.152 86.9531C457.676 87.2266 459.258 87.3633 460.898 87.3633C463.477 87.3633 465.332 87.0508 466.465 86.4258C467.598 85.8008 468.164 84.9805 468.164 83.9648C468.164 83.3398 467.969 82.8125 467.578 82.3828C467.227 81.9531 466.719 81.582 466.055 81.2695C465.391 80.918 464.609 80.6055 463.711 80.332C462.812 80.0195 461.816 79.707 460.723 79.3945L457.383 78.3984C454.102 77.4219 451.27 76.2891 448.887 75C446.504 73.6719 444.551 72.1875 443.027 70.5469C441.504 68.9062 440.371 67.1484 439.629 65.2734C438.887 63.3594 438.516 61.3281 438.516 59.1797C438.516 56.4062 439.141 53.7305 440.391 51.1523C441.641 48.5352 443.574 46.2109 446.191 44.1797C448.809 42.1484 452.148 40.5273 456.211 39.3164C460.312 38.1055 465.176 37.5 470.801 37.5C472.91 37.5 475.098 37.6367 477.363 37.9102C479.668 38.1445 481.895 38.457 484.043 38.8477C486.191 39.2383 488.203 39.6875 490.078 40.1953C491.953 40.6641 493.535 41.1523 494.824 41.6602L489.668 51.0938C488.809 50.625 487.793 50.2148 486.621 49.8633C485.488 49.4727 484.316 49.1406 483.105 48.8672C481.895 48.5547 480.723 48.3203 479.59 48.1641C478.496 48.0078 477.559 47.9297 476.777 47.9297C474.512 47.9297 472.891 48.2422 471.914 48.8672C470.938 49.4922 470.449 50.2539 470.449 51.1523C470.449 51.5039 470.547 51.875 470.742 52.2656C470.938 52.6562 471.328 53.0664 471.914 53.4961C472.5 53.9258 473.32 54.375 474.375 54.8438C475.43 55.3125 476.816 55.8008 478.535 56.3086L481.816 57.3047C485.449 58.3984 488.457 59.6289 490.84 60.9961C493.262 62.3633 495.195 63.8477 496.641 65.4492C498.125 67.0117 499.16 68.6719 499.746 70.4297C500.371 72.1875 500.684 73.9844 500.684 75.8203C500.684 78.6328 500 81.3672 498.633 84.0234C497.266 86.6797 495.078 89.0234 492.07 91.0547C489.102 93.0859 485.254 94.7266 480.527 95.9766C475.801 97.1875 470.078 97.793 463.359 97.793C460.469 97.793 457.812 97.6758 455.391 97.4414C452.969 97.207 450.684 96.8555 448.535 96.3867C446.387 95.918 444.316 95.3516 442.324 94.6875C440.371 93.9844 438.438 93.2031 436.523 92.3438L442.617 81.6797Z" fill="#FF5100"/>
</svg>
